<svg width="74" height="73" viewBox="0 0 74 73" fill="none" xmlns="http://www.w3.org/2000/svg">
<path d="M18.31 62.86C17.34 62.86 16.39 62.36 15.87 61.46L0.590013 35.2C-0.189987 33.86 0.280019 32.16 1.62002 31.39C2.97002 30.62 4.69002 31.08 5.47002 32.41L20.75 58.67C21.53 60.01 21.06 61.71 19.72 62.48C19.27 62.74 18.79 62.86 18.31 62.86Z" fill="#29AAFF"/>
<path d="M30.6501 44.46C29.6701 44.46 28.7101 43.95 28.1901 43.04L17.9801 25.08C16.8301 23.11 14.8601 21.82 12.5801 21.54C10.2901 21.26 8.06005 22.04 6.46005 23.69C5.38005 24.8 3.60005 24.83 2.48005 23.76C1.36005 22.69 1.33006 20.92 2.41006 19.81C5.25006 16.9 9.21005 15.51 13.2601 16C17.3201 16.49 20.8201 18.79 22.8601 22.3L22.8701 22.33L33.1 40.3C33.8601 41.64 33.3801 43.35 32.0301 44.1C31.59 44.34 31.1201 44.46 30.6501 44.46Z" fill="#374EFF"/>
<path d="M31.78 72.55C30.22 72.55 28.96 71.3 28.96 69.76C28.96 68.22 30.22 66.97 31.78 66.97C36.44 66.97 40.64 64.42 42.76 60.31L43.55 58.77L44.77 56.46C45.49 55.1 47.2 54.57 48.57 55.29C49.95 56.01 50.48 57.7 49.75 59.06L48.53 61.35L47.76 62.85C44.69 68.83 38.56 72.55 31.78 72.55Z" fill="#374EFF"/>
<path d="M53.01 49.73C52.57 49.73 52.12 49.63 51.7 49.41C50.32 48.69 49.79 47 50.52 45.64L66.87 16.36C68.19 13.82 67.82 10.77 65.9 8.60001C64.39 6.89001 62.21 6.03001 59.92 6.26001C57.63 6.49001 55.67 7.75001 54.52 9.72001C53.75 11.06 52.03 11.52 50.68 10.75C49.33 9.98001 48.86 8.28001 49.64 6.94001C51.7 3.38001 55.24 1.10001 59.36 0.700014C63.48 0.290014 67.41 1.83001 70.14 4.92001C73.59 8.82001 74.26 14.32 71.86 18.93L55.5 48.23C55 49.19 54.02 49.73 53.01 49.73Z" fill="#3063FF"/>
<path d="M33.25 55.02C32.81 55.78 32.07 55.86 31.78 55.86C31.48 55.86 30.75 55.78 30.31 55.02L14.58 28.02C13.84 26.76 12.26 26.16 10.92 26.77C9.37997 27.47 8.81997 29.3 9.63997 30.71L25.33 57.64C26.62 59.85 28.92 61.35 31.5 61.45C34.27 61.55 36.77 60.18 38.15 57.82L39.88 54.84C40.67 53.49 40.18 51.76 38.81 51C37.47 50.26 35.77 50.72 35 52.04L33.25 55.02Z" fill="#3094FF"/>
<path d="M61.8 11.06C60.46 10.45 58.87 11.05 58.14 12.31L40.22 43.07C39.45 44.4 39.9 46.1 41.23 46.87C42.58 47.65 44.31 47.2 45.1 45.86L63.08 15C63.9 13.58 63.33 11.75 61.8 11.06Z" fill="#29AAFF"/>
</svg>
